<svg width="32" height="24" viewBox="0 0 32 24" fill="none" xmlns="http://www.w3.org/2000/svg">
<g filter="url(#filter0_d_236_29528)">
<mask id="path-1-inside-1_236_29528" fill="white">
<path d="M24 13.1668H8L15.0411 6.54326C15.8465 5.78566 17.1138 5.8253 17.8702 6.63175L24 13.1668Z"/>
</mask>
<path d="M24 13.1668H8L15.0411 6.54326C15.8465 5.78566 17.1138 5.8253 17.8702 6.63175L24 13.1668Z" fill="white"/>
<path d="M8 13.1668L7.31482 12.4385L5.47749 14.1668H8V13.1668ZM24 13.1668V14.1668H26.309L24.7294 12.4827L24 13.1668ZM17.8702 6.63175L17.1409 7.31588L17.1409 7.31588L17.8702 6.63175ZM15.0411 6.54326L14.356 5.81488L14.356 5.81488L15.0411 6.54326ZM8 14.1668H24V12.1668H8V14.1668ZM24.7294 12.4827L18.5996 5.94763L17.1409 7.31588L23.2706 13.851L24.7294 12.4827ZM14.356 5.81488L7.31482 12.4385L8.68518 13.8952L15.7263 7.27163L14.356 5.81488ZM18.5996 5.94763C17.4649 4.73794 15.564 4.67848 14.356 5.81488L15.7263 7.27163C16.129 6.89283 16.7626 6.91265 17.1409 7.31588L18.5996 5.94763Z" fill="#F0F0F0" mask="url(#path-1-inside-1_236_29528)"/>
</g>
<defs>
<filter id="filter0_d_236_29528" x="0" y="0" width="32" height="23.167" filterUnits="userSpaceOnUse" color-interpolation-filters="sRGB">
<feFlood flood-opacity="0" result="BackgroundImageFix"/>
<feColorMatrix in="SourceAlpha" type="matrix" values="0 0 0 0 0 0 0 0 0 0 0 0 0 0 0 0 0 0 127 0" result="hardAlpha"/>
<feOffset dy="2"/>
<feGaussianBlur stdDeviation="4"/>
<feComposite in2="hardAlpha" operator="out"/>
<feColorMatrix type="matrix" values="0 0 0 0 0.0980392 0 0 0 0 0.0980392 0 0 0 0 0.0980392 0 0 0 0.1 0"/>
<feBlend mode="normal" in2="BackgroundImageFix" result="effect1_dropShadow_236_29528"/>
<feBlend mode="normal" in="SourceGraphic" in2="effect1_dropShadow_236_29528" result="shape"/>
</filter>
</defs>
</svg>
