<svg width="40" height="40" viewBox="0 0 40 40" fill="none" xmlns="http://www.w3.org/2000/svg">
<rect width="40" height="40" fill="#E5E5E5"/>
<g clip-path="url(#clip0_89_4958)">
<rect width="1680" height="945" transform="translate(-1033 -581)" fill="#F9F9F9"/>
<path d="M-178 -392C-178 -398.627 -172.627 -404 -166 -404H110C116.627 -404 122 -398.627 122 -392V66C122 72.6274 116.627 78 110 78H-166C-172.627 78 -178 72.6274 -178 66V-392Z" fill="white"/>
<path d="M30.5449 40.1934C33.4189 40.1934 35.168 38.3125 35.168 35.1924C35.168 32.0811 33.4102 30.1914 30.5449 30.1914C27.6885 30.1914 25.9219 32.0898 25.9219 35.1924C25.9219 38.3125 27.6621 40.1934 30.5449 40.1934ZM30.5449 38.3652C29.0244 38.3652 28.1543 37.2051 28.1543 35.1924C28.1543 33.1885 29.0244 32.0195 30.5449 32.0195C32.0566 32.0195 32.9268 33.1885 32.9268 35.1924C32.9268 37.2051 32.0654 38.3652 30.5449 38.3652ZM44.3086 30.3848H36.2051V32.125H39.167V40H41.3467V32.125H44.3086V30.3848ZM50.9619 31.0264V31.0615H53.0889V31.0264C53.0889 29.7344 53.9854 28.8643 55.3125 28.8643C56.5605 28.8643 57.4746 29.6729 57.4746 30.7891C57.4746 31.6855 57.0439 32.3447 55.3125 34.1025L51.085 38.4268V40H59.8916V38.0752H54.1963V37.9258L56.8506 35.2627C59.0039 33.1357 59.6982 32.0107 59.6982 30.6484C59.6982 28.5303 57.8877 27.001 55.3828 27.001C52.7812 27.001 50.9619 28.6533 50.9619 31.0264ZM68.127 40H70.2979V37.6357H72.0117V35.7197H70.2979V27.3174H67.0986C64.8574 30.6924 63.0732 33.5137 61.9307 35.6143V37.6357H68.127V40ZM64.0312 35.6406C65.5078 33.0391 66.8262 30.9561 68.0391 29.1631H68.1621V35.7725H64.0312V35.6406ZM78.7881 40.3076C82.0137 40.3076 83.9297 37.7852 83.9297 33.5137C83.9297 31.9053 83.6221 30.5518 83.0332 29.5059C82.1807 27.8799 80.7129 27.001 78.8584 27.001C76.0986 27.001 74.1475 28.8555 74.1475 31.457C74.1475 33.9004 75.9053 35.6758 78.3223 35.6758C79.8076 35.6758 81.0117 34.9814 81.6094 33.7773H81.6357C81.6357 33.7773 81.6709 33.7773 81.6797 33.7773C81.6973 33.7773 81.7588 33.7773 81.7588 33.7773C81.7588 36.6777 80.6602 38.4092 78.8057 38.4092C77.7158 38.4092 76.8721 37.8115 76.582 36.8535H74.3232C74.7012 38.9365 76.4678 40.3076 78.7881 40.3076ZM78.8672 33.874C77.4082 33.874 76.3711 32.8369 76.3711 31.3867C76.3711 29.9717 77.4609 28.8906 78.876 28.8906C80.291 28.8906 81.3809 29.9893 81.3809 31.4219C81.3809 32.8369 80.3174 33.874 78.8672 33.874ZM94.6348 29.2158H96.3486C97.9834 29.2158 98.8096 30.0332 98.8096 31.3428C98.8096 32.6699 97.9746 33.4873 96.3398 33.4873H94.6348V29.2158ZM98.1504 38.207V36.7041H94.6348V35.3154H96.9111C99.4248 35.3154 101.112 33.6367 101.112 31.3252C101.112 29.0049 99.4863 27.3174 97.0078 27.3174H92.3672V33.5137H90.7148V35.2891H92.3672V36.7041H90.7148V38.207H92.3672V40H94.6348V38.207H98.1504Z" fill="#FF7010"/>
<path d="M-166 -403H110V-405H-166V-403ZM121 -392V66H123V-392H121ZM110 77H-166V79H110V77ZM-177 66V-392H-179V66H-177ZM-166 77C-172.075 77 -177 72.0751 -177 66H-179C-179 73.1797 -173.18 79 -166 79V77ZM121 66C121 72.0751 116.075 77 110 77V79C117.18 79 123 73.1797 123 66H121ZM110 -403C116.075 -403 121 -398.075 121 -392H123C123 -399.18 117.18 -405 110 -405V-403ZM-166 -405C-173.18 -405 -179 -399.18 -179 -392H-177C-177 -398.075 -172.075 -403 -166 -403V-405Z" fill="#F0F0F0"/>
<g filter="url(#filter0_b_89_4958)">
<rect x="-1033" y="-581" width="1680" height="945" fill="#191919" fill-opacity="0.4"/>
</g>
<rect x="-728" y="-449" width="1070" height="680" rx="24" fill="white"/>
<rect x="-32.5" y="-31.5" width="104" height="104" rx="11.5" fill="white" stroke="#F0F0F0"/>
<path d="M24.053 16.1406C19.3661 11.4537 16.8335 10.5122 15.1576 9.88919C14.4497 9.62599 14.0223 9.46709 13.6627 9.10748C13.3501 8.7949 13.3847 8.53741 13.5215 8.40061C13.6785 8.24374 13.9056 8.29077 14.1447 8.52983C14.184 8.56905 14.2265 8.60358 14.2715 8.63334C15.0982 9.39342 16.1642 9.80974 17.2942 9.80974C18.4884 9.80974 19.6111 9.34467 20.4556 8.50014C22.1988 6.75695 22.1988 3.9204 20.4556 2.17713C18.6414 0.362926 15.9726 -0.352226 12.9403 0.163083C10.0105 0.661205 7.07197 2.26049 4.66628 4.66618C2.26044 7.0721 0.661229 10.0105 0.163186 12.9404C-0.352358 15.9724 0.36295 18.6415 2.17708 20.4558C3.92043 22.1991 6.75689 22.199 8.50009 20.4558C10.2311 18.7248 10.2431 15.9157 8.53642 14.1695C8.53134 14.1641 8.52618 14.1589 8.52095 14.1535C8.28189 13.9145 8.23478 13.6874 8.39181 13.5304C8.52852 13.3936 8.7861 13.3589 9.09868 13.6716C9.45828 14.0311 9.61719 14.4585 9.88039 15.1665C10.5034 16.8424 11.4448 19.375 16.1318 24.0619C16.2904 24.2206 16.4984 24.2999 16.7062 24.2999C16.9141 24.2999 17.1221 24.2206 17.2806 24.0622L24.0531 17.2896C24.3703 16.9723 24.3703 16.4579 24.053 16.1406ZM16.7104 22.3345C12.7681 18.2714 11.9516 16.0756 11.4032 14.6005C11.1105 13.813 10.8577 13.1329 10.2475 12.5228C9.74336 12.0186 9.17422 11.8086 8.64352 11.8086C8.09876 11.8086 7.59447 12.03 7.24299 12.3814C6.55955 13.0649 6.37635 14.2651 7.32877 15.2579C7.33611 15.2659 7.34361 15.2737 7.35134 15.2813C8.46118 16.3911 8.46118 18.1969 7.35134 19.3067C6.24166 20.4165 4.43589 20.4165 3.32606 19.3067C1.89458 17.8752 1.34005 15.7108 1.76482 13.2125C2.207 10.6118 3.64535 7.9846 5.8151 5.81492C7.98478 3.64525 10.6119 2.20682 13.2126 1.76471C15.7109 1.33987 17.8753 1.89448 19.3068 3.32588C20.4167 4.43571 20.4167 6.2414 19.3068 7.35124C18.7692 7.88882 18.0544 8.18491 17.2942 8.18491C16.5339 8.18491 15.8191 7.88882 15.2815 7.35124C15.2383 7.30812 15.1914 7.27077 15.1415 7.23913C14.1708 6.39883 13.0315 6.59273 12.3728 7.25163C11.6787 7.94569 11.4924 9.23451 12.514 10.2562C13.1242 10.8665 13.8042 11.1192 14.5917 11.4119C16.0668 11.9603 18.2626 12.7768 22.3257 16.7192L16.7104 22.3345Z" fill="#FF7010"/>
<path d="M39.8606 28.4195C39.4377 25.9317 38.0812 23.4381 36.0411 21.398C34.0009 19.3579 31.5073 18.0014 29.0195 17.5785C26.4296 17.1381 24.1468 17.7519 22.5919 19.3067C21.0768 20.822 21.0768 23.2874 22.5919 24.8027C23.326 25.5368 24.3019 25.941 25.3399 25.941C26.3628 25.941 27.3253 25.5485 28.0555 24.8348C28.0604 24.8301 28.0654 24.8252 28.0703 24.8203C28.1626 24.728 28.2544 24.6745 28.322 24.6735C28.3627 24.6708 28.3924 24.694 28.4102 24.7118C28.4279 24.7295 28.4574 24.7682 28.4564 24.8282C28.455 24.9128 28.3965 25.0173 28.2915 25.1221C27.964 25.4497 27.3217 25.8081 26.5084 26.2619C24.5466 27.3565 21.5821 29.0108 17.6696 32.9232C17.5173 33.0756 17.4316 33.2822 17.4316 33.4976C17.4316 33.713 17.5173 33.9197 17.6696 34.072L23.3596 39.7619C23.5182 39.9205 23.7261 39.9999 23.9339 39.9999C24.1418 39.9999 24.3498 39.9205 24.5087 39.7619C28.421 35.8495 30.0753 32.8849 31.17 30.9232C31.6238 30.11 31.9823 29.4676 32.3097 29.1402C32.4729 28.9771 32.6301 28.9317 32.72 29.0215C32.8207 29.1222 32.6952 29.2777 32.6115 29.3615C32.5748 29.3982 32.5423 29.4376 32.514 29.4793C31.8574 30.1969 31.498 31.1204 31.498 32.0993C31.498 33.1373 31.9023 34.1133 32.6363 34.8473C34.1516 36.3625 36.617 36.3626 38.1323 34.8473C39.6872 33.2922 40.3009 31.0096 39.8606 28.4195ZM36.9832 33.6985C36.1015 34.5802 34.6667 34.5802 33.785 33.6985C33.3579 33.2714 33.1226 32.7035 33.1226 32.0993C33.1226 31.4952 33.3578 30.9273 33.785 30.5002C33.8261 30.459 33.862 30.4144 33.8926 30.3671C34.6328 29.5003 34.4493 28.4535 33.8686 27.8728C33.2409 27.2451 32.0787 27.0734 31.1607 27.9914C30.6734 28.4786 30.2866 29.1719 29.751 30.1315C28.755 31.9164 27.2763 34.5664 23.929 38.0337L19.3978 33.5025C22.865 30.1552 25.515 28.6765 27.3 27.6807C28.2596 27.1452 28.953 26.7583 29.4403 26.2709C30.3583 25.353 30.1866 24.1907 29.5589 23.5631C28.9553 22.9594 27.8477 22.7851 26.9624 23.6315C26.9544 23.6388 26.9465 23.6463 26.9388 23.6541C26.0571 24.5358 24.6222 24.5358 23.7405 23.6541C23.3134 23.2269 23.0781 22.659 23.0781 22.0549C23.0781 21.4509 23.3133 20.8829 23.7405 20.4558C24.9125 19.2837 26.6905 18.8308 28.747 19.1803C30.9057 19.5474 33.088 20.743 34.8919 22.547C36.696 24.351 37.8916 26.5333 38.2585 28.6919C38.6083 30.7484 38.1553 32.5264 36.9832 33.6985Z" fill="#FF7010"/>
</g>
<defs>
<filter id="filter0_b_89_4958" x="-1065" y="-613" width="1744" height="1009" filterUnits="userSpaceOnUse" color-interpolation-filters="sRGB">
<feFlood flood-opacity="0" result="BackgroundImageFix"/>
<feGaussianBlur in="BackgroundImage" stdDeviation="16"/>
<feComposite in2="SourceAlpha" operator="in" result="effect1_backgroundBlur_89_4958"/>
<feBlend mode="normal" in="SourceGraphic" in2="effect1_backgroundBlur_89_4958" result="shape"/>
</filter>
<clipPath id="clip0_89_4958">
<rect width="1680" height="945" fill="white" transform="translate(-1033 -581)"/>
</clipPath>
</defs>
</svg>
